<svg xmlns="http://www.w3.org/2000/svg" viewBox="0 0 48 48" width="48" height="48">
  <circle cx="24" cy="24" r="23" fill="#323031" stroke="#C84038" stroke-width="2" />
  <text x="24" y="7" text-anchor="middle" font-family="JetBrains Mono, monospace" font-size="3.4" font-weight="400" fill="#C84038" opacity="0.5">0x14</text>
  <path
     d="m 16.40799,30.26 q -1.898,0 -3.328,-0.702 -1.43,-0.728 -2.236,-2.002 -0.78,-1.3 -0.78,-3.016 v -8.06 q 0,-1.742 0.78,-3.016 0.806,-1.274 2.236,-1.976 1.43,-0.728 3.328,-0.728 1.924,0 3.328,0.728 1.43,0.702 2.21,1.976 0.806,1.274 0.806,3.016 h -3.9 q 0,-1.144 -0.65,-1.742 -0.624,-0.598 -1.794,-0.598 -1.17,0 -1.82,0.598 -0.624,0.598 -0.624,1.742 v 8.06 q 0,1.118 0.624,1.742 0.65,0.598 1.82,0.598 1.17,0 1.794,-0.598 0.65,-0.624 0.65,-1.742 h 3.9 q 0,1.716 -0.806,3.016 -0.78,1.274 -2.21,2.002 -1.404,0.702 -3.328,0.702 z m 13.54601,0 q -2.132,0 -3.38,-1.222 -1.248,-1.248 -1.248,-3.25 0,-2.158 1.534,-3.406 1.534,-1.248 4.316,-1.248 h 2.808 v -0.91 q 0,-0.806 -0.572,-1.248 -0.546,-0.468 -1.586,-0.468 -0.988,0 -1.586,0.39 -0.572,0.39 -0.624,1.144 h -3.692 q 0.078,-2.106 1.664,-3.354 1.586,-1.248 4.29,-1.248 2.834,0 4.42,1.3 1.586,1.3 1.586,3.64 V 30 h -3.77 v -2.47 q -0.26,1.274 -1.378,2.002 -1.092,0.728 -2.782,0.728 z m 1.378,-3.12 q 1.222,0 1.924,-0.598 0.728,-0.624 0.728,-1.612 v -1.456 h -2.73 q -1.04,0 -1.612,0.52 -0.546,0.494 -0.546,1.3 0,0.806 0.572,1.326 0.598,0.52 1.664,0.52 z"
     style="fill:#ffc857"
     aria-label="Ca" />
  <line
     x1="13"
     y1="38"
     x2="35"
     y2="38"
     stroke="#2FB8A0"
     stroke-width="3"
     stroke-linecap="round" />
</svg>