<svg xmlns="http://www.w3.org/2000/svg" viewBox="0 0 256 256" width="256" height="256">
  <rect x="12" y="12" width="232" height="232" rx="8" fill="#323031" stroke="#C84038" stroke-width="6" />
  <!-- <text x="28" y="44" font-family="JetBrains Mono, monospace" font-size="18" font-weight="400" fill="#C84038" opacity="0.5">0x14</text> -->
  <path
     d="m 33.4,44.18 q -1.818,0 -2.898,-1.044 Q 29.44,42.074 29.44,40.31 v -5.76 q 0,-1.764 1.062,-2.808 1.08,-1.062 2.898,-1.062 1.818,0 2.88,1.062 1.08,1.044 1.08,2.808 v 5.76 q 0,1.17 -0.486,2.052 -0.486,0.864 -1.386,1.35 -0.882,0.468 -2.088,0.468 z m 0,-1.386 q 1.08,0 1.728,-0.684 0.666,-0.702 0.666,-1.8 v -5.76 q 0,-1.098 -0.666,-1.782 -0.648,-0.702 -1.728,-0.702 -1.08,0 -1.746,0.702 -0.648,0.684 -0.648,1.782 v 5.76 q 0,1.098 0.648,1.8 0.666,0.684 1.746,0.684 z m 0,-4.374 q -0.486,0 -0.792,-0.27 -0.288,-0.27 -0.288,-0.774 0,-0.486 0.288,-0.738 0.306,-0.27 0.792,-0.27 0.486,0 0.774,0.27 0.306,0.252 0.306,0.738 0,0.504 -0.306,0.774 -0.288,0.27 -0.774,0.27 z m 6.300007,5.58 3.51,-5.094 -3.294,-4.806 h 1.908 l 1.962,3.06 q 0.126,0.198 0.234,0.432 0.126,0.234 0.198,0.378 0.054,-0.144 0.162,-0.378 0.126,-0.234 0.252,-0.432 l 1.962,-3.06 h 1.908 l -3.294,4.824 3.492,5.076 h -1.908 l -2.124,-3.24 q -0.126,-0.198 -0.252,-0.45 -0.108,-0.27 -0.198,-0.432 -0.072,0.162 -0.216,0.432 -0.126,0.252 -0.27,0.45 l -2.124,3.24 z m 11.520007,0 v -1.476 h 3.564 v -10.26 l -3.564,2.664 v -1.854 l 2.97,-2.214 h 2.214 v 11.664 h 2.916 V 44 Z m 16.380007,0 v -2.88 h -5.94 v -2.538 l 4.788,-7.722 h 1.836 l -5.004,8.082 v 0.702 h 4.32 V 36.44 h 1.62 V 44 Z"
     style="opacity:0.5;fill:#c84038"
     aria-label="0x14" />
  <!-- <text x="128" y="162" text-anchor="middle" font-family="JetBrains Mono, monospace" font-size="134" font-weight="800" fill="#FFC857">Ca</text> -->
  <path
     d="m 88.871949,163.34 q -9.782,0 -17.152,-3.618 -7.37,-3.752 -11.524,-10.318 -4.02,-6.7 -4.02,-15.544 V 92.32 q 0,-8.978 4.02,-15.544 4.154,-6.566 11.524,-10.184 7.37,-3.752 17.152,-3.752 9.916,0 17.152001,3.752 7.37,3.618 11.39,10.184 4.154,6.566 4.154,15.544 h -20.1 q 0,-5.896 -3.350001,-8.978 -3.216,-3.082 -9.246,-3.082 -6.03,0 -9.38,3.082 -3.216,3.082 -3.216,8.978 v 41.54 q 0,5.762 3.216,8.978 3.35,3.082 9.38,3.082 6.03,0 9.246,-3.082 3.350001,-3.216 3.350001,-8.978 h 20.1 q 0,8.844 -4.154,15.544 -4.02,6.566 -11.39,10.318 -7.236001,3.618 -17.152001,3.618 z m 69.814051,0 q -10.988,0 -17.42,-6.298 -6.432,-6.432 -6.432,-16.75 0,-11.122 7.906,-17.554 7.906,-6.432 22.244,-6.432 h 14.472 v -4.69 q 0,-4.154 -2.948,-6.432 -2.814,-2.412 -8.174,-2.412 -5.092,0 -8.174,2.01 -2.948,2.01 -3.216,5.896 h -19.028 q 0.402,-10.854 8.576,-17.286 8.174,-6.432 22.11,-6.432 14.606,0 22.78,6.7 8.174,6.7 8.174,18.76 V 162 h -19.43 v -12.73 q -1.34,6.566 -7.102,10.318 -5.628,3.752 -14.338,3.752 z m 7.102,-16.08 q 6.298,0 9.916,-3.082 3.752,-3.216 3.752,-8.308 v -7.504 h -14.07 q -5.36,0 -8.308,2.68 -2.814,2.546 -2.814,6.7 0,4.154 2.948,6.834 3.082,2.68 8.576,2.68 z"
     style="fill:#ffc857"
     aria-label="Ca" />
  <!-- <text x="130" y="204" text-anchor="middle" font-family="JetBrains Mono, monospace" font-size="21" font-weight="500" fill="#2FB8A0" letter-spacing="0.25em">callcium</text> -->
  <path
     d="m 67.692968,204.21 q -2.121,0 -3.402,-1.176 -1.281,-1.197 -1.281,-3.276 v -3.087 q 0,-2.058 1.281,-3.234 1.281,-1.197 3.402,-1.197 2.037,0 3.276,1.092 1.26,1.071 1.323,2.94 h -2.058 q -0.063,-1.05 -0.756,-1.617 -0.672,-0.588 -1.785,-0.588 -1.197,0 -1.911,0.693 -0.693,0.672 -0.693,1.911 v 3.087 q 0,1.26 0.693,1.932 0.714,0.672 1.911,0.672 1.134,0 1.806,-0.567 0.672,-0.567 0.735,-1.617 h 2.058 q -0.063,1.869 -1.323,2.961 -1.239,1.071 -3.276,1.071 z m 16.611008,0 q -1.785,0 -2.835,-0.987 -1.029,-1.008 -1.029,-2.625 0,-1.617 1.071,-2.604 1.092,-0.987 2.856,-0.987 h 3.381 v -0.882 q 0,-2.121 -2.352,-2.121 -1.05,0 -1.701,0.399 -0.63,0.378 -0.672,1.071 h -2.058 q 0.105,-1.407 1.281,-2.31 1.176,-0.924 3.15,-0.924 2.121,0 3.276,1.008 1.155,1.008 1.155,2.835 V 204 h -2.037 v -2.121 h -0.042 q -0.147,1.071 -1.071,1.701 -0.903,0.63 -2.373,0.63 z m 0.546,-1.743 q 1.323,0 2.1,-0.63 0.798,-0.651 0.798,-1.764 v -1.533 h -3.192 q -0.903,0 -1.47,0.546 -0.546,0.525 -0.546,1.407 0,0.903 0.609,1.449 0.609,0.525 1.701,0.525 z M 104.94698,204 q -1.575,0 -2.52,-0.924 -0.945,-0.924 -0.945,-2.457 V 190.56 h -3.947996 v -1.89 h 6.026996 v 11.928 q 0,0.693 0.378,1.113 0.399,0.399 1.071,0.399 h 3.507 V 204 Z m 17.85001,0 q -1.575,0 -2.52,-0.924 -0.945,-0.924 -0.945,-2.457 V 190.56 h -3.948 v -1.89 h 6.027 v 11.928 q 0,0.693 0.378,1.113 0.399,0.399 1.071,0.399 h 3.507 V 204 Z m 16.29601,0.21 q -2.121,0 -3.402,-1.176 -1.281,-1.197 -1.281,-3.276 v -3.087 q 0,-2.058 1.281,-3.234 1.281,-1.197 3.402,-1.197 2.037,0 3.276,1.092 1.26,1.071 1.323,2.94 h -2.058 q -0.063,-1.05 -0.756,-1.617 -0.672,-0.588 -1.785,-0.588 -1.197,0 -1.911,0.693 -0.693,0.672 -0.693,1.911 v 3.087 q 0,1.26 0.693,1.932 0.714,0.672 1.911,0.672 1.134,0 1.806,-0.567 0.672,-0.567 0.735,-1.617 h 2.058 q -0.063,1.869 -1.323,2.961 -1.239,1.071 -3.276,1.071 z M 152.21801,204 v -1.89 h 4.053 v -7.77 h -3.633 v -1.89 h 5.712 v 9.66 h 3.801 V 204 Z m 4.893,-13.587 q -0.714,0 -1.134,-0.357 -0.42,-0.378 -0.42,-1.008 0,-0.651 0.42,-1.029 0.42,-0.378 1.134,-0.378 0.714,0 1.134,0.378 0.42,0.378 0.42,1.029 0,0.63 -0.42,1.008 -0.42,0.357 -1.134,0.357 z m 17.49301,13.797 q -2.037,0 -3.255,-1.197 -1.218,-1.197 -1.218,-3.255 v -7.308 h 2.079 v 7.308 q 0,1.218 0.63,1.932 0.651,0.693 1.764,0.693 1.134,0 1.785,-0.693 0.651,-0.714 0.651,-1.932 v -7.308 h 2.079 v 7.308 q 0,2.058 -1.239,3.255 -1.218,1.197 -3.276,1.197 z M 187.37203,204 v -11.55 h 1.764 v 1.575 h 0.063 q 0.084,-0.798 0.588,-1.281 0.525,-0.504 1.323,-0.504 0.777,0 1.302,0.462 0.525,0.462 0.756,1.239 v 0 q 0.126,-0.798 0.651,-1.239 0.525,-0.462 1.323,-0.462 1.092,0 1.764,0.84 0.672,0.819 0.672,2.142 V 204 h -1.89 v -8.757 q 0,-0.651 -0.336,-1.029 -0.315,-0.399 -0.861,-0.399 -0.546,0 -0.861,0.378 -0.315,0.378 -0.315,1.05 V 204 h -1.68 v -8.757 q 0,-0.651 -0.315,-1.029 -0.315,-0.399 -0.861,-0.399 -0.546,0 -0.882,0.378 -0.315,0.378 -0.315,1.05 V 204 Z"
     style="fill:#2fb8a0"
     aria-label="callcium" />
</svg>
